<?xml version="1.0" encoding="iso-8859-1"?>
<!-- Generator: Adobe Illustrator 14.0.0, SVG Export Plug-In . SVG Version: 6.00 Build 43363)  -->
<!DOCTYPE svg PUBLIC "-//W3C//DTD SVG 1.1//EN" "http://www.w3.org/Graphics/SVG/1.1/DTD/svg11.dtd">
<svg version="1.1" id="&#x30EC;&#x30A4;&#x30E4;&#x30FC;_1"
	 xmlns="http://www.w3.org/2000/svg" xmlns:xlink="http://www.w3.org/1999/xlink" x="0px" y="0px" width="1190.55px"
	 height="841.89px" viewBox="0 0 1190.55 841.89" style="enable-background:new 0 0 1190.55 841.89;" xml:space="preserve">
<style type="text/css">
<![CDATA[
	.st0{fill:#B5B5B6;}
	.st1{fill:url(#SVGID_1_);stroke:#FFFFFF;stroke-width:0.5;}
	.st2{fill:url(#SVGID_2_);stroke:#FFFFFF;stroke-width:0.5;}
	.st3{fill:#FFFFFF;}
]]>
</style>
<polygon points="673.451,485.871 457.275,485.871 457.275,420.871 457.275,355.871 594.774,355.871 732.274,355.871 
	732.274,420.871 "/>
<g>
	<linearGradient id="SVGID_1_" gradientUnits="userSpaceOnUse" x1="494.2651" y1="404.9302" x2="554.7651" y2="466.9302">
		<stop  offset="0" style="stop-color:#E62488"/>
		<stop  offset="0.5091" style="stop-color:#2A61AD"/>
		<stop  offset="1" style="stop-color:#2663AF"/>
	</linearGradient>
	<path class="st1" d="M510.094,382.774c0,0-10.11,3.889-10.11,12.645s0,50.209,0,50.209s-0.438,4.621,5.055,9.09
		c3.283,2.891,7.515,3.063,8.524,3.063s2.978-0.141,10.125-4.063c8.938-4.969,14.438-8.156,14.438-8.156s0-25.479,0-24.771
		s0.283-5.708-6.667-5.708s-7.059,5.37-7.167,8.333c0,1.75,0,22.167,0,22.167s0.167,1.25-1.083,1.25c-1.583,0-11.282,0-11.553,0
		c-0.434,0-0.78-0.063-0.78-1.399V383.5C510.875,383.5,511.104,382.632,510.094,382.774z"/>
	<linearGradient id="SVGID_2_" gradientUnits="userSpaceOnUse" x1="517.1333" y1="382.6147" x2="577.6323" y2="444.6137">
		<stop  offset="0" style="stop-color:#E62488"/>
		<stop  offset="0.5091" style="stop-color:#2A61AD"/>
		<stop  offset="1" style="stop-color:#2663AF"/>
	</linearGradient>
	<path class="st2" d="M524.083,388.167c0,0,0,20.495,0,21c0,1.63,1.062,0.25,1.573-0.26c1.153-1.153,3.657-5.073,11.698-4.927
		c4.426,0,7.728,1.903,9.208,3.083s4.781,3.771,4.781,12.094c0,9.906,0,18.5,0,18.5s10.438-5.188,13.656-8.594
		c2.875-2.563,3.438-7.39,3.438-9.406c0-6.031-4.661-9.037-5.449-9.615s-37.833-22.354-37.833-22.354
		S524.083,387.083,524.083,388.167z"/>
</g>
<g>
	<path class="st3" d="M599.119,421.149c-0.605,0-1.278-0.026-1.992-0.104c-0.497-0.052-0.416-0.819,0.082-0.767
		c0.672,0.065,1.265,0.104,1.83,0.104c0.512,0,0.551-0.052,0.551-0.819v-4.355c-1.695,1.716-3.606,3.016-5.961,4.355
		c-0.498,0.286-0.902-0.442-0.444-0.715c2.288-1.365,4.521-3.198,6.353-5.239h-6.003c-0.511,0-0.511-0.741,0-0.741h6.083v-1.677
		c0-0.247,0.148-0.39,0.404-0.39h0.551c0.27,0,0.404,0.13,0.404,0.39v1.677h2.342c0.498,0,0.498,0.741,0,0.741h-2.342v5.967
		C600.977,420.889,600.681,421.149,599.119,421.149z"/>
	<path class="st3" d="M610.363,414.012c-0.969-0.754-1.938-1.456-3.068-2.093c-0.242-0.13-0.296-0.312-0.175-0.52l0.014-0.013
		c0.134-0.208,0.296-0.273,0.538-0.182c1.252,0.429,2.314,0.936,3.526,1.599c0.229,0.13,0.282,0.325,0.134,0.546l-0.416,0.585
		C610.768,414.142,610.565,414.181,610.363,414.012z M607.874,419.927c3.661-1.508,6.527-3.679,9.044-6.864
		c0.148-0.195,0.336-0.234,0.538-0.117c0.188,0.117,0.229,0.299,0.095,0.507c-2.141,3.406-5.115,6.136-9.111,7.749
		c-0.229,0.091-0.418,0.026-0.525-0.208l-0.256-0.546C607.551,420.213,607.632,420.031,607.874,419.927z"/>
	<path class="st3" d="M630.141,414.428c-1.48,3.666-3.271,5.564-6.689,7.072c-0.229,0.104-0.416,0.052-0.524-0.143
		c-0.121-0.208-0.054-0.377,0.175-0.507c2.975-1.742,4.011-3.393,5.141-6.344h-7.146c-0.27,0-0.417-0.117-0.403-0.351
		c0.013-0.221,0.147-0.338,0.403-0.338h8.626C629.992,413.816,630.342,413.921,630.141,414.428z M621.81,411.386
		c0-0.221,0.148-0.351,0.403-0.351h6.245c0.27,0,0.403,0.13,0.403,0.351c0,0.234-0.134,0.364-0.403,0.364h-6.245
		C621.944,411.75,621.81,411.62,621.81,411.386z"/>
	<path class="st3" d="M639.77,421.487h-0.578c-0.256,0-0.404-0.13-0.404-0.39v-6.123c-1.225,0.832-2.84,1.742-4.926,2.509
		c-0.457,0.169-0.74-0.429-0.282-0.611c3.405-1.352,6.069-3.523,8.425-6.175c0.175-0.195,0.377-0.208,0.578-0.039l0.432,0.377
		c0.188,0.169,0.201,0.364,0.013,0.559c-1.09,1.144-1.87,1.82-2.853,2.509v6.994C640.174,421.357,640.039,421.487,639.77,421.487z"
		/>
	<path class="st3" d="M650.758,414.012c-0.969-0.754-1.938-1.456-3.068-2.093c-0.242-0.13-0.296-0.312-0.175-0.52l0.014-0.013
		c0.134-0.208,0.296-0.273,0.538-0.182c1.252,0.429,2.314,0.936,3.526,1.599c0.229,0.13,0.282,0.325,0.134,0.546l-0.416,0.585
		C651.162,414.142,650.96,414.181,650.758,414.012z M648.269,419.927c3.661-1.508,6.527-3.679,9.044-6.864
		c0.148-0.195,0.336-0.234,0.538-0.117c0.188,0.117,0.229,0.299,0.095,0.507c-2.141,3.406-5.115,6.136-9.111,7.749
		c-0.229,0.091-0.418,0.026-0.525-0.208l-0.256-0.546C647.945,420.213,648.026,420.031,648.269,419.927z"/>
	<path class="st3" d="M668.273,417.301c-0.457,2.041-2.152,3.549-4.319,4.03c-0.472,0.104-0.673-0.455-0.202-0.624
		c1.278-0.455,2.14-1.118,2.719-2.184c0.646-1.209,0.673-2.691,0.673-4.291h-3.108v2.978c0,0.247-0.135,0.39-0.404,0.39h-0.565
		c-0.269,0-0.403-0.143-0.403-0.39v-2.978h-2.396c-0.497,0-0.484-0.676,0-0.676h2.396v-2.262c0-0.247,0.148-0.39,0.403-0.39h0.579
		c0.256,0,0.403,0.13,0.403,0.39v2.262h3.082v-2.301c0-0.26,0.147-0.39,0.403-0.39h0.619c0.256,0,0.404,0.13,0.404,0.39v2.301h2.436
		c0.484,0,0.484,0.676,0,0.676h-2.436C668.557,415.403,668.503,416.326,668.273,417.301z"/>
	<path class="st3" d="M674.821,411.867h8.532c0.35,0,0.539,0.182,0.539,0.52v7.644c0,0.338-0.189,0.52-0.539,0.52h-8.532
		c-0.351,0-0.538-0.182-0.538-0.52v-7.644C674.283,412.049,674.471,411.867,674.821,411.867z M675.709,412.646v7.125h6.756v-7.125
		H675.709z"/>
	<path class="st3" d="M691.152,414.012c-0.969-0.754-1.938-1.456-3.068-2.093c-0.242-0.13-0.296-0.312-0.175-0.52l0.014-0.013
		c0.134-0.208,0.296-0.273,0.538-0.182c1.252,0.429,2.314,0.936,3.526,1.599c0.229,0.13,0.282,0.325,0.134,0.546l-0.416,0.585
		C691.557,414.142,691.354,414.181,691.152,414.012z M688.663,419.927c3.661-1.508,6.527-3.679,9.044-6.864
		c0.148-0.195,0.336-0.234,0.538-0.117c0.188,0.117,0.229,0.299,0.095,0.507c-2.141,3.406-5.115,6.136-9.111,7.749
		c-0.229,0.091-0.418,0.026-0.525-0.208l-0.256-0.546C688.34,420.213,688.421,420.031,688.663,419.927z"/>
</g>
<g>
	<path class="st0" d="M600.301,395.293c0,0.162-0.079,0.243-0.236,0.243h-2.025l-0.034,2.359c0,0.135,0.017,0.387,0.087,0.423
		c0.096,0.045,0.35,0.072,0.768,0.072c0.855,0.009,0.917,0,0.969-1.351c0.01-0.171,0.097-0.261,0.254-0.243l0.262,0.027
		c0.148,0.018,0.227,0.099,0.219,0.252l-0.018,0.288c-0.018,0.261-0.053,0.657-0.079,0.837c-0.018,0.099-0.104,0.324-0.21,0.45
		c0,0.009-0.227,0.18-0.41,0.207c-0.087,0.018-0.393,0.072-0.61,0.072h-0.41c-0.698,0-1.187-0.036-1.335-0.108
		c-0.262-0.126-0.332-0.27-0.332-0.549v-2.737h-1.213c-0.018,1.882-0.62,2.746-2.557,3.466c-0.131,0.045-0.245,0.009-0.314-0.108
		l-0.043-0.072c-0.087-0.144-0.044-0.261,0.113-0.324c1.423-0.54,1.912-1.287,1.946-2.962h-1.798c-0.157,0-0.236-0.081-0.236-0.243
		c0-0.153,0.079-0.234,0.236-0.234h6.773C600.222,395.059,600.301,395.14,600.301,395.293z M600.283,392.214v1.305
		c0,0.162-0.079,0.243-0.236,0.243h-0.384c-0.157,0-0.235-0.081-0.235-0.243v-1.089h-5.499v1.089c0,0.162-0.079,0.243-0.236,0.243
		h-0.384c-0.157,0-0.236-0.081-0.236-0.243v-1.305c0-0.162,0.079-0.243,0.236-0.243h2.923v-0.684c0-0.162,0.079-0.243,0.236-0.243
		h0.428c0.156,0,0.235,0.081,0.235,0.243v0.684h2.915C600.204,391.971,600.283,392.052,600.283,392.214z M599.218,393.636
		c0,0.153-0.079,0.234-0.235,0.234h-4.608c-0.157,0-0.236-0.081-0.236-0.243c0-0.144,0.079-0.216,0.236-0.216h4.608
		C599.139,393.411,599.218,393.492,599.218,393.636z"/>
	<path class="st0" d="M606.028,391.26c0.995,0.936,2.052,1.719,3.169,2.376c0.131,0.081,0.156,0.189,0.096,0.333l-0.053,0.117
		c-0.078,0.135-0.191,0.18-0.322,0.099c-1.354-0.774-2.531-1.657-3.518-2.611c-0.986,0.954-2.165,1.836-3.518,2.611
		c-0.131,0.072-0.244,0.036-0.314-0.099l-0.061-0.117c-0.07-0.144-0.035-0.252,0.096-0.333c1.117-0.657,2.174-1.44,3.168-2.376
		c0.088-0.081,0.175-0.117,0.288-0.117h0.681C605.854,391.143,605.941,391.179,606.028,391.26z M608.036,394.06
		c0,0.153-0.079,0.234-0.235,0.234h-1.955v1.621h2.27c0.156,0,0.234,0.081,0.234,0.243c0,0.144-0.078,0.216-0.234,0.216h-2.27v1.972
		h3.028c0.157,0,0.235,0.081,0.235,0.243c0,0.153-0.078,0.234-0.235,0.234h-6.948c-0.156,0-0.234-0.081-0.234-0.243
		c0-0.153,0.078-0.234,0.234-0.234h3.029v-1.972h-2.27c-0.156,0-0.235-0.081-0.235-0.243c0-0.144,0.079-0.216,0.235-0.216h2.27
		v-1.621h-1.946c-0.157,0-0.235-0.081-0.235-0.243c0-0.144,0.078-0.216,0.235-0.216h4.792
		C607.957,393.834,608.036,393.916,608.036,394.06z"/>
	<path class="st0" d="M612.525,391.287l-0.288,0.504h5.21c0.158,0,0.236,0.081,0.236,0.243c0,0.144-0.078,0.216-0.236,0.216h-0.488
		v1.656h0.829c0.157,0,0.235,0.081,0.235,0.243s-0.078,0.243-0.235,0.243h-0.829v1.747h0.663c0.157,0,0.235,0.081,0.235,0.243
		c0,0.135-0.078,0.207-0.235,0.207h-7.034c-0.158,0-0.236-0.081-0.236-0.243c0-0.135,0.078-0.207,0.236-0.207h0.672v-1.747h-0.838
		c-0.157,0-0.236-0.081-0.236-0.243s0.079-0.243,0.236-0.243h0.838v-0.819c-0.088,0.09-0.184,0.198-0.297,0.306
		c-0.105,0.108-0.219,0.117-0.332,0.027l-0.14-0.117c-0.122-0.108-0.14-0.216-0.026-0.333c0.48-0.541,0.935-1.188,1.327-1.945
		c0.069-0.135,0.166-0.171,0.306-0.135l0.287,0.081C612.543,391.017,612.595,391.133,612.525,391.287z M612.063,397.489
		c-0.271,0.495-0.594,1-0.978,1.513c-0.087,0.117-0.2,0.144-0.331,0.054l-0.21-0.144c-0.131-0.09-0.148-0.216-0.053-0.342
		c0.297-0.396,0.594-0.882,0.891-1.44c0.079-0.144,0.183-0.18,0.323-0.108l0.262,0.135
		C612.105,397.229,612.141,397.345,612.063,397.489z M612.865,392.25h-0.732v1.656h0.732V392.25z M612.865,394.393h-0.732v1.747
		h0.732V394.393z M613.563,397.336c0.097,0.486,0.166,0.954,0.228,1.404c0.018,0.162-0.053,0.252-0.21,0.279l-0.375,0.054
		c-0.157,0.027-0.245-0.054-0.263-0.216c-0.052-0.441-0.131-0.9-0.218-1.369c-0.034-0.162,0.035-0.261,0.184-0.288l0.375-0.063
		C613.433,397.111,613.529,397.183,613.563,397.336z M614.506,392.25h-0.803v1.656h0.803V392.25z M614.506,394.393h-0.803v1.747
		h0.803V394.393z M615.23,397.219c0.219,0.549,0.402,1.018,0.541,1.432c0.053,0.153-0.008,0.252-0.156,0.297l-0.323,0.09
		c-0.14,0.036-0.235-0.009-0.288-0.162c-0.148-0.45-0.332-0.918-0.516-1.396c-0.061-0.153-0.008-0.261,0.141-0.306l0.297-0.099
		C615.074,397.03,615.17,397.075,615.23,397.219z M616.086,392.25h-0.732v1.656h0.732V392.25z M616.086,394.393h-0.732v1.747h0.732
		V394.393z M616.846,397.048c0.393,0.558,0.698,1.062,0.951,1.485c0.078,0.135,0.053,0.252-0.088,0.333l-0.244,0.144
		c-0.131,0.072-0.244,0.045-0.322-0.09c-0.306-0.54-0.603-1.044-0.899-1.477c-0.087-0.135-0.069-0.261,0.069-0.342l0.21-0.126
		C616.645,396.904,616.758,396.922,616.846,397.048z"/>
	<path class="st0" d="M622.154,394.302c0,0.144-0.078,0.216-0.234,0.216h-0.804l0.891,1.863c0.062,0.135,0.044,0.243-0.07,0.333
		l-0.2,0.162c-0.131,0.108-0.254,0.072-0.323-0.081c-0.175-0.387-0.314-0.693-0.428-0.963v3.034c0,0.162-0.079,0.243-0.235,0.243
		h-0.341c-0.157,0-0.235-0.081-0.235-0.243v-2.683c-0.227,0.558-0.498,1.098-0.855,1.638c-0.096,0.153-0.236,0.153-0.332,0
		l-0.113-0.171c-0.078-0.117-0.078-0.225,0-0.342c0.523-0.829,0.934-1.774,1.205-2.791h-0.951c-0.158,0-0.236-0.081-0.236-0.243
		c0-0.144,0.078-0.216,0.236-0.216h1.047v-2.629c0-0.162,0.078-0.243,0.235-0.243h0.341c0.156,0,0.235,0.081,0.235,0.243v2.629
		h0.935C622.076,394.06,622.154,394.141,622.154,394.302z M619.686,391.818c0.139,0.549,0.234,1.044,0.322,1.503
		c0.026,0.153-0.035,0.252-0.184,0.288l-0.253,0.054c-0.157,0.036-0.253-0.036-0.279-0.189c-0.104-0.549-0.2-1.053-0.313-1.495
		c-0.035-0.153,0.018-0.252,0.174-0.288l0.244-0.054C619.545,391.602,619.65,391.665,619.686,391.818z M622.207,391.845
		c-0.069,0.531-0.191,1.08-0.34,1.656c-0.044,0.153-0.14,0.207-0.288,0.171l-0.228-0.054c-0.148-0.036-0.209-0.144-0.166-0.297
		c0.141-0.504,0.236-1.018,0.297-1.531c0.018-0.153,0.105-0.234,0.254-0.225l0.262,0.018
		C622.154,391.593,622.233,391.683,622.207,391.845z M626.955,396.355v0.018c0,0.144-0.053,0.243-0.2,0.27l-0.663,0.135v2.088
		c0,0.162-0.079,0.243-0.236,0.243h-0.401c-0.157,0-0.235-0.081-0.235-0.243v-1.917l-3.221,0.639
		c-0.157,0.027-0.254-0.045-0.271-0.207v-0.009c-0.018-0.153,0.052-0.252,0.192-0.279l3.299-0.657v-5.005
		c0-0.162,0.078-0.243,0.235-0.243h0.401c0.157,0,0.236,0.081,0.236,0.243v4.834l0.593-0.117
		C626.842,396.121,626.938,396.193,626.955,396.355z M622.906,393.861c0.559,0.531,1.021,1.017,1.422,1.485
		c0.096,0.108,0.096,0.225-0.018,0.342l-0.156,0.162c-0.114,0.117-0.228,0.108-0.332-0.009c-0.445-0.54-0.916-1.026-1.379-1.494
		c-0.113-0.108-0.105-0.234,0-0.342l0.122-0.135C622.67,393.753,622.792,393.753,622.906,393.861z M623.586,391.8
		c0.516,0.486,0.935,0.954,1.31,1.368c0.097,0.117,0.087,0.234-0.018,0.342l-0.165,0.162c-0.114,0.117-0.228,0.108-0.332-0.018
		c-0.41-0.504-0.838-0.954-1.248-1.369c-0.113-0.117-0.113-0.234-0.009-0.342l0.122-0.135
		C623.351,391.691,623.473,391.691,623.586,391.8z"/>
	<path class="st0" d="M633.574,397.039c0.515-0.603,0.76-1.53,0.646-2.421c-0.113-0.864-0.585-1.657-1.344-2.026
		c-0.087-0.045-0.725-0.243-1.117-0.225c-0.035,0.963-0.175,1.936-0.515,2.872c-0.279,0.774-0.996,2.539-2.252,2.35
		c-1.274-0.189-1.223-2.161-0.891-3.115c0.681-1.981,3.037-3.151,5.036-2.377c1.004,0.387,1.78,1.288,1.99,2.395
		c0.192,1.017-0.079,2.232-0.942,3.016c-0.751,0.667-1.693,0.981-2.775,1.053c-0.271,0.018-0.297-0.351-0.027-0.405
		C632.273,397.976,633.016,397.696,633.574,397.039z M629.123,396.895c0.584,0.144,1.187-1.26,1.396-1.873
		c0.279-0.819,0.445-1.692,0.506-2.583c-0.898,0.27-1.771,1.098-2.121,2.278C628.738,395.257,628.529,396.751,629.123,396.895z"/>
	<path class="st0" d="M636.867,397.444h2.977v-4.24h-2.146c-0.324,0-0.314-0.495,0-0.495h5.376c0.323,0,0.313,0.495,0,0.495h-2.278
		v4.24h3.081c0.323,0,0.314,0.486,0,0.486h-7.009C636.545,397.931,636.553,397.444,636.867,397.444z"/>
	<path class="st0" d="M648.104,393.663c-0.629-0.522-1.257-1.008-1.99-1.449c-0.157-0.09-0.191-0.216-0.113-0.36l0.009-0.009
		c0.087-0.144,0.192-0.189,0.349-0.126c0.813,0.297,1.502,0.648,2.287,1.107c0.148,0.09,0.184,0.225,0.087,0.378l-0.271,0.405
		C648.365,393.753,648.234,393.78,648.104,393.663z M646.488,397.759c2.375-1.044,4.233-2.547,5.865-4.753
		c0.096-0.135,0.219-0.162,0.35-0.081c0.122,0.081,0.148,0.207,0.061,0.352c-1.387,2.358-3.316,4.249-5.908,5.365
		c-0.148,0.063-0.271,0.018-0.341-0.144l-0.165-0.378C646.279,397.958,646.332,397.832,646.488,397.759z"/>
	<path class="st0" d="M656.258,394.941c-0.611-0.477-1.056-0.774-1.649-1.134c-0.297-0.18-0.026-0.549,0.245-0.459
		c0.697,0.234,1.169,0.459,1.91,0.882c0.166,0.09,0.193,0.225,0.079,0.378l-0.218,0.288
		C656.52,395.041,656.398,395.059,656.258,394.941z M655.298,397.696c2.374-0.9,4.181-2.368,5.717-4.69
		c0.192-0.279,0.611-0.045,0.445,0.261c-1.257,2.35-2.968,4.096-5.778,5.348c-0.166,0.072-0.279,0.018-0.349-0.144l-0.184-0.423
		C655.08,397.886,655.133,397.759,655.298,397.696z M657.175,393.141c-0.603-0.477-1.039-0.774-1.606-1.116
		c-0.314-0.189-0.035-0.576,0.254-0.477c0.68,0.234,1.143,0.477,1.858,0.891c0.157,0.09,0.192,0.225,0.079,0.378l-0.219,0.279
		C657.428,393.24,657.314,393.258,657.175,393.141z M659.906,392.547h-0.053c-0.156,0-0.227-0.072-0.227-0.225v-0.999
		c0-0.153,0.07-0.225,0.227-0.225h0.053c0.148,0,0.236,0.072,0.236,0.225v0.999C660.143,392.475,660.055,392.547,659.906,392.547z
		 M660.701,392.547h-0.053c-0.148,0-0.236-0.072-0.236-0.225v-0.999c0-0.153,0.088-0.225,0.236-0.225h0.053
		c0.156,0,0.227,0.072,0.227,0.225v0.999C660.928,392.475,660.857,392.547,660.701,392.547z"/>
	<path class="st0" d="M663.165,397.012h6.581c0.166,0,0.262,0.09,0.262,0.27v0.036c0,0.171-0.088,0.27-0.262,0.27h-6.581
		c-0.166,0-0.263-0.099-0.263-0.27v-0.036C662.902,397.102,662.999,397.012,663.165,397.012z M663.959,392.664h4.992
		c0.175,0,0.262,0.09,0.262,0.27v0.036c0,0.171-0.087,0.27-0.262,0.27h-4.992c-0.174,0-0.262-0.099-0.262-0.27v-0.036
		C663.697,392.754,663.793,392.664,663.959,392.664z"/>
	<path class="st0" d="M678.441,392.43c-0.768,1.45-1.535,2.044-2.818,2.44c-0.341,1.71-1.135,3.079-2.741,3.988
		c-0.288,0.162-0.523-0.243-0.244-0.423c1.632-1.053,2.095-2.737,2.095-4.744c0-0.171,0.096-0.271,0.262-0.271h0.532
		c0.175,0,0.263,0.099,0.253,0.279c-0.018,0.18-0.035,0.36-0.061,0.531c0.707-0.513,1.204-1.107,1.519-1.801h-4.976
		c-0.322,0-0.322-0.486,0-0.486h5.831C678.416,391.944,678.572,392.178,678.441,392.43z"/>
	<path class="st0" d="M685.838,391.34c-0.07,0.117-0.158,0.252-0.263,0.405h1.78c0.158,0,0.236,0.081,0.236,0.243
		c0,0.126-0.078,0.189-0.236,0.189h-3.011v0.621h2.583c0.158,0,0.236,0.081,0.236,0.243c0,0.081-0.078,0.126-0.236,0.126h-2.583
		v0.63h3.265c0.156,0,0.235,0.081,0.235,0.243c0,0.108-0.079,0.171-0.235,0.171h-1.771c0.593,0.648,1.238,1.161,1.972,1.593
		c0.132,0.072,0.175,0.18,0.122,0.324l-0.061,0.171c-0.062,0.162-0.175,0.208-0.314,0.126c-0.375-0.225-0.732-0.468-0.995-0.693
		l-0.017,1.251c0,0.162-0.079,0.243-0.236,0.243h-2.418c0.393,0.297,0.751,0.495,1.361,0.72c0.297-0.126,0.629-0.288,1.484-0.748
		c0.131-0.072,0.227-0.063,0.332,0.045l0.025,0.027c0.123,0.126,0.096,0.261-0.061,0.342c-0.62,0.324-0.873,0.45-1.144,0.576
		c0.401,0.153,0.995,0.288,1.649,0.405c0.166,0.027,0.227,0.144,0.166,0.297c-0.053,0.135-0.148,0.18-0.288,0.162
		c-1.144-0.18-2.138-0.423-2.897-0.837l-0.148-0.081c-0.594-0.324-1.057-0.63-1.336-0.909h-0.951v1.215
		c0.672-0.081,1.283-0.171,1.842-0.252c0.157-0.027,0.253,0.063,0.253,0.225c0,0.135-0.069,0.216-0.218,0.243
		c-1.24,0.198-2.409,0.315-3.605,0.396c-0.156,0.009-0.244-0.063-0.252-0.225c-0.01-0.144,0.069-0.225,0.227-0.234
		c0.35-0.018,0.646-0.054,0.908-0.072v-2.791c-0.263,0.225-0.62,0.459-0.996,0.684c-0.139,0.081-0.262,0.045-0.314-0.117
		l-0.061-0.18c-0.043-0.135-0.009-0.243,0.122-0.315c0.733-0.432,1.38-0.945,1.973-1.593h-1.771c-0.157,0-0.235-0.081-0.235-0.243
		c0-0.108,0.078-0.171,0.235-0.171h3.265v-0.63h-2.584c-0.157,0-0.236-0.081-0.236-0.243c0-0.081,0.079-0.126,0.236-0.126h2.584
		v-0.621h-3.012c-0.157,0-0.236-0.081-0.236-0.243c0-0.126,0.079-0.189,0.236-0.189h1.807c-0.07-0.126-0.14-0.252-0.235-0.396
		c-0.097-0.144-0.062-0.27,0.104-0.315l0.253-0.063c0.131-0.036,0.228,0,0.306,0.117c0.184,0.261,0.332,0.477,0.437,0.657h1.606
		c0.131-0.189,0.262-0.405,0.383-0.639c0.07-0.126,0.158-0.171,0.297-0.144l0.307,0.063
		C685.872,391.062,685.925,391.188,685.838,391.34z M685.715,395.338h-3.631v0.594h3.631V395.338z M685.715,396.274h-3.631v0.585
		h3.631V396.274z M682.128,394.969h1.327v-0.216c0-0.162,0.078-0.243,0.235-0.243h0.419c0.156,0,0.235,0.081,0.235,0.243v0.216
		h1.327c-0.306-0.306-0.523-0.549-0.672-0.756h-2.2C682.651,394.419,682.434,394.663,682.128,394.969z"/>
	<path class="st0" d="M693.521,391.332c0.008,0.27,0.008,0.558,0.025,0.882h2.34c0.156,0,0.234,0.081,0.234,0.243
		c0,0.153-0.078,0.234-0.234,0.234h-2.305c0.096,1.134,0.314,2.242,0.602,3.16c0.35-0.612,0.629-1.359,0.83-2.197
		c0.035-0.153,0.131-0.216,0.287-0.171l0.35,0.108c0.14,0.045,0.201,0.144,0.166,0.297c-0.262,1.018-0.681,1.945-1.318,2.827
		c0.323,0.72,0.699,1.251,0.838,1.404c0.184,0.198,0.428-0.189,0.506-1.27c0.01-0.189,0.114-0.27,0.279-0.216l0.358,0.117
		c0.131,0.045,0.192,0.144,0.175,0.297c-0.14,1.287-0.472,1.936-1.064,1.936c-0.489,0-1.152-0.612-1.668-1.584
		c-0.566,0.612-1.3,1.116-2.155,1.467c-0.14,0.054-0.235,0.009-0.314-0.117l-0.044-0.072c-0.087-0.144-0.035-0.261,0.113-0.324
		c0.76-0.342,1.441-0.873,2.086-1.647c-0.497-1.224-0.785-2.575-0.881-4.015h-2.514v1.107h2.051c0.157,0,0.236,0.09,0.236,0.252
		c-0.01,1.458-0.044,2.35-0.123,2.71c-0.121,0.576-0.541,0.549-0.942,0.549c-0.157,0-0.506-0.018-0.872-0.063
		c-0.141-0.018-0.219-0.099-0.228-0.243c-0.018-0.153,0.079-0.234,0.245-0.207c0.218,0.027,0.453,0.036,0.628,0.036
		c0.192,0,0.306-0.072,0.375-0.369c0.044-0.198,0.069-0.954,0.069-2.214h-1.439v0.333c0,1.792-0.271,3.205-0.873,4.339
		c-0.078,0.153-0.209,0.162-0.322,0.027l-0.271-0.324c-0.087-0.099-0.096-0.207-0.043-0.333c0.445-0.999,0.637-2.269,0.637-4.15
		v-1.684c0-0.162,0.078-0.243,0.236-0.243h3.115c-0.018-0.342-0.018-0.612-0.025-0.882c0-0.162,0.078-0.243,0.235-0.243h0.384
		C693.442,391.088,693.521,391.169,693.521,391.332z M694.429,390.899c0.444,0.234,0.838,0.486,1.179,0.702
		c0.139,0.09,0.148,0.207,0.061,0.333l-0.044,0.063c-0.087,0.126-0.209,0.135-0.331,0.054c-0.498-0.306-0.864-0.531-1.152-0.693
		c-0.14-0.072-0.175-0.207-0.078-0.333l0.034-0.045C694.184,390.863,694.298,390.836,694.429,390.899z"/>
	<path class="st0" d="M701.029,395.968h-2.217c-0.025,1.188-0.191,2.134-0.541,2.944c-0.061,0.144-0.184,0.171-0.314,0.099
		l-0.313-0.18c-0.122-0.072-0.157-0.18-0.104-0.315c0.287-0.774,0.418-1.747,0.418-3.259v-1.98c0-0.162,0.079-0.243,0.236-0.243
		h2.836c0.158,0,0.236,0.081,0.236,0.243v2.448C701.266,395.887,701.188,395.968,701.029,395.968z M701.475,391.809
		c0,0.162-0.078,0.243-0.235,0.243h-3.465c-0.157,0-0.235-0.081-0.235-0.243s0.078-0.243,0.235-0.243h3.465
		C701.396,391.565,701.475,391.646,701.475,391.809z M700.453,393.492h-1.641v2.017h1.641V393.492z M704.861,391.8
		c-0.611,0.216-1.405,0.387-2.339,0.495c-0.009,0.729-0.026,1.278-0.035,1.629h2.601c0.158,0,0.236,0.081,0.236,0.243v0.018
		c0,0.162-0.078,0.243-0.236,0.243h-0.715v4.348c0,0.162-0.079,0.243-0.236,0.243h-0.384c-0.157,0-0.235-0.081-0.235-0.243v-4.348
		h-1.064c-0.123,2.115-0.498,3.232-1.362,4.366c-0.096,0.126-0.21,0.135-0.331,0.027l-0.192-0.162
		c-0.114-0.099-0.131-0.216-0.044-0.342c0.523-0.774,0.855-1.638,1.021-3.205c0.087-0.765,0.131-1.783,0.14-3.007
		c0-0.153,0.078-0.243,0.227-0.252c1.073-0.099,1.981-0.288,2.784-0.594c0.148-0.054,0.262,0,0.297,0.153l0.018,0.081
		C705.045,391.638,705.001,391.755,704.861,391.8z"/>
</g>
<g>
	<path class="st3" d="M602.69,436.918c-1.229,3.989-3.233,7.295-7.042,11.17c-0.277,0.248-0.575,0.248-0.813,0.02
		c-0.258-0.266-0.278-0.532-0.02-0.798c3.233-3.743,4.542-6.802,5.534-10.923c0.1-0.381,0.357-0.514,0.734-0.457l1.189,0.285
		C602.65,436.291,602.77,436.689,602.69,436.918z M610.308,446.873c-0.813-3.648-1.944-7.144-4.622-9.917
		c-0.258-0.267-0.297-0.513-0.079-0.741c0.238-0.209,0.516-0.228,0.794-0.019c3.253,2.526,5.018,5.794,6.367,10.03
		c0.119,0.361-0.02,0.607-0.396,0.703l-1.33,0.361C610.645,447.385,610.387,447.233,610.308,446.873z"/>
	<path class="st3" d="M631.221,438.723c-1.131,1.843-1.844,2.621-3.293,4.274c-0.516,0.569-1.447,0.076-1.012-0.608
		c0.894-1.387,1.35-2.336,1.885-3.57l-6.645,1.006v2.68c0,0.854-0.02,1.689,0.059,2.488c0.061,0.722,0.219,1.254,0.715,1.539
		c0.496,0.284,1.289,0.342,2.103,0.36c1.646,0.058,3.53-0.19,5.554-0.569c0.397-0.076,0.655,0.113,0.675,0.493l0.04,0.608
		c0.02,0.36-0.179,0.569-0.556,0.627c-2.46,0.342-4.106,0.513-5.792,0.418c-0.912-0.039-1.865-0.133-2.896-0.608
		c-1.17-0.551-1.627-1.653-1.766-2.717c-0.139-0.931-0.099-1.767-0.099-2.64v-2.489l-4.126,0.646
		c-0.715,0.114-0.854-0.931-0.139-1.045l4.244-0.627v-4.673c0-0.36,0.219-0.569,0.596-0.569h0.833c0.396,0,0.595,0.189,0.595,0.569
		v4.445l8.332-1.159C631.42,437.469,631.658,438.001,631.221,438.723z"/>
	<path class="st3" d="M650.785,435.854c-1.586,6.023-5.117,10.26-11.088,13.109c-0.357,0.17-0.635,0.075-0.754-0.209
		c-0.139-0.305-0.039-0.533,0.298-0.723c4.819-2.754,7.339-6.688,8.946-11.987h-10.732c-0.377,0-0.574-0.171-0.595-0.513
		c0-0.322,0.179-0.514,0.575-0.514h12.695C650.548,435.018,650.965,435.246,650.785,435.854z M648.545,446.93h-0.119
		c-0.357,0-0.516-0.152-0.516-0.475v-2.109c0-0.322,0.158-0.475,0.516-0.475h0.119c0.336,0,0.535,0.152,0.535,0.475v2.109
		C649.08,446.777,648.881,446.93,648.545,446.93z M650.35,446.93h-0.119c-0.338,0-0.535-0.152-0.535-0.475v-2.109
		c0-0.322,0.197-0.475,0.535-0.475h0.119c0.357,0,0.516,0.152,0.516,0.475v2.109C650.865,446.777,650.707,446.93,650.35,446.93z"/>
	<path class="st3" d="M657.238,435.379h12.576c0.516,0,0.794,0.266,0.794,0.76v11.171c0,0.493-0.278,0.76-0.794,0.76h-12.576
		c-0.516,0-0.793-0.267-0.793-0.76v-11.171C656.445,435.645,656.723,435.379,657.238,435.379z M658.548,436.52v10.41h9.958v-10.41
		H658.548z"/>
</g>
</svg>
