<?xml version="1.0" encoding="iso-8859-1"?>
<!-- Generator: Adobe Illustrator 14.0.0, SVG Export Plug-In . SVG Version: 6.00 Build 43363)  -->
<!DOCTYPE svg PUBLIC "-//W3C//DTD SVG 1.1//EN" "http://www.w3.org/Graphics/SVG/1.1/DTD/svg11.dtd">
<svg version="1.1" id="&#x30EC;&#x30A4;&#x30E4;&#x30FC;_1"
	 xmlns="http://www.w3.org/2000/svg" xmlns:xlink="http://www.w3.org/1999/xlink" x="0px" y="0px" width="105.45px"
	 height="38.27px" viewBox="0 0 105.45 38.27" style="enable-background:new 0 0 105.45 38.27;" xml:space="preserve">
<style type="text/css">
<![CDATA[
	.st0{fill:#FFFFFF;}
]]>
</style>
<g>
	<path class="st0" d="M6.119,10.389c-0.605,0-1.278-0.026-1.992-0.104C3.63,10.232,3.711,9.465,4.209,9.517
		c0.672,0.065,1.265,0.104,1.83,0.104c0.512,0,0.551-0.052,0.551-0.819V4.447C4.895,6.163,2.983,7.463,0.628,8.802
		C0.13,9.088-0.273,8.36,0.185,8.087c2.288-1.365,4.521-3.198,6.353-5.239H0.534c-0.511,0-0.511-0.741,0-0.741h6.083V0.43
		c0-0.247,0.148-0.39,0.404-0.39h0.551c0.27,0,0.404,0.13,0.404,0.39v1.677h2.342c0.498,0,0.498,0.741,0,0.741H7.977v5.967
		C7.977,10.128,7.681,10.389,6.119,10.389z"/>
	<path class="st0" d="M17.363,3.251c-0.969-0.754-1.938-1.456-3.068-2.093c-0.242-0.13-0.296-0.312-0.175-0.52l0.014-0.013
		c0.134-0.208,0.296-0.273,0.538-0.182c1.252,0.429,2.314,0.936,3.526,1.599c0.229,0.13,0.282,0.325,0.134,0.546l-0.416,0.585
		C17.768,3.381,17.565,3.42,17.363,3.251z M14.874,9.166c3.661-1.508,6.527-3.679,9.044-6.864c0.148-0.195,0.336-0.234,0.538-0.117
		c0.188,0.117,0.229,0.299,0.095,0.507c-2.141,3.406-5.115,6.136-9.111,7.749c-0.229,0.091-0.418,0.026-0.525-0.208l-0.256-0.546
		C14.551,9.452,14.632,9.27,14.874,9.166z"/>
	<path class="st0" d="M37.141,3.667c-1.48,3.666-3.271,5.564-6.689,7.072c-0.229,0.104-0.416,0.052-0.524-0.144
		c-0.121-0.207-0.054-0.377,0.175-0.506c2.975-1.743,4.011-3.394,5.141-6.345h-7.146c-0.27,0-0.417-0.117-0.403-0.351
		c0.013-0.221,0.147-0.338,0.403-0.338h8.626C36.992,3.056,37.342,3.16,37.141,3.667z M28.81,0.625c0-0.221,0.148-0.351,0.403-0.351
		h6.245c0.27,0,0.403,0.13,0.403,0.351c0,0.234-0.134,0.364-0.403,0.364h-6.245C28.944,0.989,28.81,0.859,28.81,0.625z"/>
	<path class="st0" d="M46.77,10.727h-0.578c-0.256,0-0.404-0.131-0.404-0.391V4.213c-1.225,0.832-2.84,1.742-4.926,2.509
		c-0.457,0.169-0.74-0.429-0.282-0.611c3.405-1.352,6.069-3.523,8.425-6.175c0.175-0.195,0.377-0.208,0.578-0.039l0.432,0.377
		c0.188,0.169,0.201,0.364,0.013,0.559c-1.09,1.144-1.87,1.82-2.853,2.509v6.994C47.174,10.596,47.039,10.727,46.77,10.727z"/>
	<path class="st0" d="M57.758,3.251c-0.969-0.754-1.938-1.456-3.068-2.093c-0.242-0.13-0.296-0.312-0.175-0.52l0.014-0.013
		c0.134-0.208,0.296-0.273,0.538-0.182c1.252,0.429,2.314,0.936,3.526,1.599c0.229,0.13,0.282,0.325,0.134,0.546l-0.416,0.585
		C58.162,3.381,57.96,3.42,57.758,3.251z M55.269,9.166c3.661-1.508,6.527-3.679,9.044-6.864c0.148-0.195,0.336-0.234,0.538-0.117
		c0.188,0.117,0.229,0.299,0.095,0.507c-2.141,3.406-5.115,6.136-9.111,7.749c-0.229,0.091-0.418,0.026-0.525-0.208l-0.256-0.546
		C54.945,9.452,55.026,9.27,55.269,9.166z"/>
	<path class="st0" d="M75.273,6.54c-0.457,2.041-2.152,3.55-4.319,4.03c-0.472,0.104-0.673-0.455-0.202-0.624
		c1.278-0.455,2.14-1.118,2.719-2.184c0.646-1.209,0.673-2.691,0.673-4.291h-3.108v2.978c0,0.247-0.135,0.39-0.404,0.39h-0.565
		c-0.269,0-0.403-0.143-0.403-0.39V3.472h-2.396c-0.497,0-0.484-0.676,0-0.676h2.396V0.534c0-0.247,0.148-0.39,0.403-0.39h0.579
		c0.256,0,0.403,0.13,0.403,0.39v2.262h3.082V0.495c0-0.26,0.147-0.39,0.403-0.39h0.619c0.256,0,0.404,0.13,0.404,0.39v2.301h2.436
		c0.484,0,0.484,0.676,0,0.676h-2.436C75.557,4.642,75.503,5.565,75.273,6.54z"/>
	<path class="st0" d="M81.821,1.106h8.532c0.35,0,0.539,0.182,0.539,0.52V9.27c0,0.338-0.189,0.52-0.539,0.52h-8.532
		c-0.351,0-0.538-0.182-0.538-0.52V1.626C81.283,1.288,81.471,1.106,81.821,1.106z M82.709,1.886V9.01h6.756V1.886H82.709z"/>
	<path class="st0" d="M98.152,3.251c-0.969-0.754-1.938-1.456-3.068-2.093c-0.242-0.13-0.296-0.312-0.175-0.52l0.014-0.013
		c0.134-0.208,0.296-0.273,0.538-0.182c1.252,0.429,2.314,0.936,3.526,1.599c0.229,0.13,0.282,0.325,0.134,0.546l-0.416,0.585
		C98.557,3.381,98.354,3.42,98.152,3.251z M95.663,9.166c3.661-1.508,6.527-3.679,9.044-6.864c0.148-0.195,0.336-0.234,0.538-0.117
		c0.188,0.117,0.229,0.299,0.095,0.507c-2.141,3.406-5.115,6.136-9.111,7.749c-0.229,0.091-0.418,0.026-0.525-0.208l-0.256-0.546
		C95.34,9.452,95.421,9.27,95.663,9.166z"/>
</g>
<g>
	<path class="st0" d="M9.69,26.157c-1.229,3.989-3.233,7.295-7.042,11.17c-0.277,0.248-0.575,0.248-0.813,0.02
		c-0.258-0.266-0.278-0.532-0.02-0.798c3.233-3.743,4.542-6.802,5.534-10.923c0.1-0.381,0.357-0.514,0.734-0.457l1.189,0.285
		C9.65,25.53,9.77,25.929,9.69,26.157z M17.308,36.112c-0.813-3.648-1.944-7.144-4.622-9.917c-0.258-0.267-0.297-0.513-0.079-0.741
		c0.238-0.209,0.516-0.228,0.794-0.019c3.253,2.526,5.018,5.794,6.367,10.03c0.119,0.361-0.02,0.607-0.396,0.703l-1.33,0.361
		C17.645,36.624,17.387,36.473,17.308,36.112z"/>
	<path class="st0" d="M38.221,27.962c-1.131,1.843-1.844,2.621-3.293,4.274c-0.516,0.569-1.447,0.076-1.012-0.608
		c0.894-1.387,1.35-2.336,1.885-3.57l-6.645,1.006v2.68c0,0.854-0.02,1.689,0.059,2.488c0.061,0.722,0.219,1.254,0.715,1.539
		c0.496,0.284,1.289,0.342,2.103,0.36c1.646,0.058,3.53-0.19,5.554-0.569c0.397-0.076,0.655,0.113,0.675,0.493l0.04,0.608
		c0.02,0.36-0.179,0.569-0.556,0.627c-2.46,0.342-4.106,0.513-5.792,0.418c-0.912-0.039-1.865-0.133-2.896-0.608
		c-1.17-0.551-1.627-1.653-1.766-2.717c-0.139-0.931-0.099-1.767-0.099-2.64v-2.489l-4.126,0.646
		c-0.715,0.114-0.854-0.931-0.139-1.045l4.244-0.627v-4.673c0-0.36,0.219-0.569,0.596-0.569h0.833c0.396,0,0.595,0.189,0.595,0.569
		V28l8.332-1.159C38.42,26.708,38.658,27.24,38.221,27.962z"/>
	<path class="st0" d="M57.785,25.093c-1.586,6.023-5.117,10.26-11.088,13.109c-0.357,0.17-0.635,0.075-0.754-0.209
		c-0.139-0.305-0.039-0.533,0.298-0.723c4.819-2.754,7.339-6.688,8.946-11.987H44.455c-0.377,0-0.574-0.171-0.595-0.513
		c0-0.322,0.179-0.514,0.575-0.514h12.695C57.548,24.257,57.965,24.485,57.785,25.093z M55.545,36.169h-0.119
		c-0.357,0-0.516-0.152-0.516-0.475v-2.109c0-0.322,0.158-0.475,0.516-0.475h0.119c0.336,0,0.535,0.152,0.535,0.475v2.109
		C56.08,36.017,55.881,36.169,55.545,36.169z M57.35,36.169H57.23c-0.338,0-0.535-0.152-0.535-0.475v-2.109
		c0-0.322,0.197-0.475,0.535-0.475h0.119c0.357,0,0.516,0.152,0.516,0.475v2.109C57.865,36.017,57.707,36.169,57.35,36.169z"/>
	<path class="st0" d="M64.238,24.618h12.576c0.516,0,0.794,0.266,0.794,0.76v11.171c0,0.493-0.278,0.76-0.794,0.76H64.238
		c-0.516,0-0.793-0.267-0.793-0.76V25.378C63.445,24.884,63.723,24.618,64.238,24.618z M65.548,25.759v10.41h9.958v-10.41H65.548z"
		/>
</g>
</svg>
