<?xml version="1.0" encoding="iso-8859-1"?>
<!-- Generator: Adobe Illustrator 14.0.0, SVG Export Plug-In . SVG Version: 6.00 Build 43363)  -->
<!DOCTYPE svg PUBLIC "-//W3C//DTD SVG 1.1//EN" "http://www.w3.org/Graphics/SVG/1.1/DTD/svg11.dtd">
<svg version="1.1" id="&#x30EC;&#x30A4;&#x30E4;&#x30FC;_1"
	 xmlns="http://www.w3.org/2000/svg" xmlns:xlink="http://www.w3.org/1999/xlink" x="0px" y="0px" width="274.96px"
	 height="130.39px" viewBox="0 0 274.96 130.39" style="enable-background:new 0 0 274.96 130.39;" xml:space="preserve">
<style type="text/css">
<![CDATA[
	.st0{fill:#B5B5B6;}
	.st1{fill:url(#SVGID_1_);stroke:#FFFFFF;stroke-width:0.5;}
	.st2{fill:url(#SVGID_2_);stroke:#FFFFFF;stroke-width:0.5;}
	.st3{fill:#FFFFFF;}
]]>
</style>
<polygon points="216.451,130.371 0.275,130.371 0.275,65.371 0.275,0.371 137.774,0.371 275.274,0.371 275.274,65.371 "/>
<g>
	<linearGradient id="SVGID_1_" gradientUnits="userSpaceOnUse" x1="37.2651" y1="49.4302" x2="97.7653" y2="111.4303">
		<stop  offset="0" style="stop-color:#E62488"/>
		<stop  offset="0.5091" style="stop-color:#2A61AD"/>
		<stop  offset="1" style="stop-color:#2663AF"/>
	</linearGradient>
	<path class="st1" d="M53.094,27.274c0,0-10.11,3.889-10.11,12.645s0,50.209,0,50.209s-0.438,4.621,5.055,9.09
		c3.283,2.891,7.515,3.063,8.524,3.063s2.978-0.141,10.125-4.063c8.938-4.969,14.438-8.156,14.438-8.156s0-25.479,0-24.771
		s0.283-5.708-6.667-5.708s-7.059,5.37-7.167,8.333c0,1.75,0,22.167,0,22.167s0.167,1.25-1.083,1.25c-1.583,0-11.282,0-11.553,0
		c-0.434,0-0.78-0.063-0.78-1.399V28C53.875,28,54.104,27.132,53.094,27.274z"/>
	<linearGradient id="SVGID_2_" gradientUnits="userSpaceOnUse" x1="60.1338" y1="27.1152" x2="120.6317" y2="89.113">
		<stop  offset="0" style="stop-color:#E62488"/>
		<stop  offset="0.5091" style="stop-color:#2A61AD"/>
		<stop  offset="1" style="stop-color:#2663AF"/>
	</linearGradient>
	<path class="st2" d="M67.083,32.667c0,0,0,20.495,0,21c0,1.63,1.062,0.25,1.573-0.26c1.153-1.153,3.657-5.073,11.698-4.927
		c4.426,0,7.728,1.903,9.208,3.083s4.781,3.771,4.781,12.094c0,9.906,0,18.5,0,18.5s10.438-5.188,13.656-8.594
		c2.875-2.563,3.438-7.391,3.438-9.406c0-6.031-4.661-9.037-5.449-9.615S68.156,32.188,68.156,32.188S67.083,31.583,67.083,32.667z"
		/>
</g>
<g>
	<path class="st3" d="M142.119,65.649c-0.605,0-1.278-0.026-1.992-0.104c-0.497-0.052-0.416-0.819,0.082-0.767
		c0.672,0.065,1.265,0.104,1.83,0.104c0.512,0,0.551-0.052,0.551-0.819v-4.355c-1.695,1.716-3.606,3.016-5.961,4.355
		c-0.498,0.286-0.902-0.442-0.444-0.715c2.288-1.365,4.521-3.198,6.353-5.239h-6.003c-0.511,0-0.511-0.741,0-0.741h6.083V55.69
		c0-0.247,0.148-0.39,0.404-0.39h0.551c0.27,0,0.404,0.13,0.404,0.39v1.677h2.342c0.498,0,0.498,0.741,0,0.741h-2.342v5.967
		C143.977,65.389,143.681,65.649,142.119,65.649z"/>
	<path class="st3" d="M153.363,58.512c-0.969-0.754-1.938-1.456-3.068-2.093c-0.242-0.13-0.296-0.312-0.175-0.52l0.014-0.013
		c0.134-0.208,0.296-0.273,0.538-0.182c1.252,0.429,2.314,0.936,3.526,1.599c0.229,0.13,0.282,0.325,0.134,0.546l-0.416,0.585
		C153.768,58.642,153.565,58.681,153.363,58.512z M150.874,64.427c3.661-1.508,6.527-3.679,9.044-6.864
		c0.148-0.195,0.336-0.234,0.538-0.117c0.188,0.117,0.229,0.299,0.095,0.507c-2.141,3.406-5.115,6.136-9.111,7.749
		c-0.229,0.091-0.418,0.026-0.525-0.208l-0.256-0.546C150.551,64.713,150.632,64.531,150.874,64.427z"/>
	<path class="st3" d="M173.141,58.928c-1.48,3.666-3.271,5.564-6.689,7.072c-0.229,0.104-0.416,0.052-0.524-0.143
		c-0.121-0.208-0.054-0.377,0.175-0.507c2.975-1.742,4.011-3.393,5.141-6.344h-7.146c-0.27,0-0.417-0.117-0.403-0.351
		c0.013-0.221,0.147-0.338,0.403-0.338h8.626C172.992,58.316,173.342,58.421,173.141,58.928z M164.81,55.886
		c0-0.221,0.148-0.351,0.403-0.351h6.245c0.27,0,0.403,0.13,0.403,0.351c0,0.234-0.134,0.364-0.403,0.364h-6.245
		C164.944,56.25,164.81,56.12,164.81,55.886z"/>
	<path class="st3" d="M182.77,65.987h-0.578c-0.256,0-0.404-0.13-0.404-0.39v-6.123c-1.225,0.832-2.84,1.742-4.926,2.509
		c-0.457,0.169-0.74-0.429-0.282-0.611c3.405-1.352,6.069-3.523,8.425-6.175c0.175-0.195,0.377-0.208,0.578-0.039l0.432,0.377
		c0.188,0.169,0.201,0.364,0.013,0.559c-1.09,1.144-1.87,1.82-2.853,2.509v6.994C183.174,65.857,183.039,65.987,182.77,65.987z"/>
	<path class="st3" d="M193.758,58.512c-0.969-0.754-1.938-1.456-3.068-2.093c-0.242-0.13-0.296-0.312-0.175-0.52l0.014-0.013
		c0.134-0.208,0.296-0.273,0.538-0.182c1.252,0.429,2.314,0.936,3.526,1.599c0.229,0.13,0.282,0.325,0.134,0.546l-0.416,0.585
		C194.162,58.642,193.96,58.681,193.758,58.512z M191.269,64.427c3.661-1.508,6.527-3.679,9.044-6.864
		c0.148-0.195,0.336-0.234,0.538-0.117c0.188,0.117,0.229,0.299,0.095,0.507c-2.141,3.406-5.115,6.136-9.111,7.749
		c-0.229,0.091-0.418,0.026-0.525-0.208l-0.256-0.546C190.945,64.713,191.026,64.531,191.269,64.427z"/>
	<path class="st3" d="M211.273,61.801c-0.457,2.041-2.152,3.549-4.319,4.03c-0.472,0.104-0.673-0.455-0.202-0.624
		c1.278-0.455,2.14-1.118,2.719-2.184c0.646-1.209,0.673-2.691,0.673-4.291h-3.108v2.978c0,0.247-0.135,0.39-0.404,0.39h-0.565
		c-0.269,0-0.403-0.143-0.403-0.39v-2.978h-2.396c-0.497,0-0.484-0.676,0-0.676h2.396v-2.262c0-0.247,0.148-0.39,0.403-0.39h0.579
		c0.256,0,0.403,0.13,0.403,0.39v2.262h3.082v-2.301c0-0.26,0.147-0.39,0.403-0.39h0.619c0.256,0,0.404,0.13,0.404,0.39v2.301h2.436
		c0.484,0,0.484,0.676,0,0.676h-2.436C211.557,59.903,211.503,60.826,211.273,61.801z"/>
	<path class="st3" d="M217.821,56.367h8.532c0.35,0,0.539,0.182,0.539,0.52v7.644c0,0.338-0.189,0.52-0.539,0.52h-8.532
		c-0.351,0-0.538-0.182-0.538-0.52v-7.644C217.283,56.549,217.471,56.367,217.821,56.367z M218.709,57.146v7.125h6.756v-7.125
		H218.709z"/>
	<path class="st3" d="M234.152,58.512c-0.969-0.754-1.938-1.456-3.068-2.093c-0.242-0.13-0.296-0.312-0.175-0.52l0.014-0.013
		c0.134-0.208,0.296-0.273,0.538-0.182c1.252,0.429,2.314,0.936,3.526,1.599c0.229,0.13,0.282,0.325,0.134,0.546l-0.416,0.585
		C234.557,58.642,234.354,58.681,234.152,58.512z M231.663,64.427c3.661-1.508,6.527-3.679,9.044-6.864
		c0.148-0.195,0.336-0.234,0.538-0.117c0.188,0.117,0.229,0.299,0.095,0.507c-2.141,3.406-5.115,6.136-9.111,7.749
		c-0.229,0.091-0.418,0.026-0.525-0.208l-0.256-0.546C231.34,64.713,231.421,64.531,231.663,64.427z"/>
</g>
<g>
	<path class="st0" d="M143.301,39.793c0,0.162-0.079,0.243-0.236,0.243h-2.025l-0.034,2.359c0,0.135,0.017,0.387,0.087,0.423
		c0.096,0.045,0.35,0.072,0.768,0.072c0.855,0.009,0.917,0,0.969-1.351c0.01-0.171,0.097-0.261,0.254-0.243l0.262,0.027
		c0.148,0.018,0.227,0.099,0.219,0.252l-0.018,0.288c-0.018,0.261-0.053,0.657-0.079,0.837c-0.018,0.099-0.104,0.324-0.21,0.45
		c0,0.009-0.227,0.18-0.41,0.207c-0.087,0.018-0.393,0.072-0.61,0.072h-0.41c-0.698,0-1.187-0.036-1.335-0.108
		c-0.262-0.126-0.332-0.27-0.332-0.549v-2.737h-1.213c-0.018,1.882-0.62,2.746-2.558,3.466c-0.131,0.045-0.245,0.009-0.314-0.108
		l-0.043-0.072c-0.087-0.144-0.044-0.261,0.113-0.324c1.423-0.54,1.912-1.287,1.947-2.962h-1.798c-0.157,0-0.236-0.081-0.236-0.243
		c0-0.153,0.079-0.234,0.236-0.234h6.773C143.222,39.559,143.301,39.64,143.301,39.793z M143.283,36.714v1.305
		c0,0.162-0.079,0.243-0.236,0.243h-0.384c-0.157,0-0.235-0.081-0.235-0.243V36.93h-5.499v1.089c0,0.162-0.079,0.243-0.236,0.243
		h-0.384c-0.157,0-0.236-0.081-0.236-0.243v-1.305c0-0.162,0.079-0.243,0.236-0.243h2.923v-0.684c0-0.162,0.079-0.243,0.236-0.243
		h0.428c0.156,0,0.235,0.081,0.235,0.243v0.684h2.915C143.204,36.471,143.283,36.552,143.283,36.714z M142.218,38.136
		c0,0.153-0.079,0.234-0.235,0.234h-4.608c-0.157,0-0.236-0.081-0.236-0.243c0-0.144,0.079-0.216,0.236-0.216h4.608
		C142.139,37.911,142.218,37.992,142.218,38.136z"/>
	<path class="st0" d="M149.028,35.76c0.995,0.936,2.052,1.719,3.169,2.376c0.131,0.081,0.156,0.189,0.096,0.333l-0.053,0.117
		c-0.078,0.135-0.191,0.18-0.322,0.099c-1.354-0.774-2.531-1.657-3.518-2.611c-0.986,0.954-2.165,1.836-3.518,2.611
		c-0.131,0.072-0.244,0.036-0.314-0.099l-0.061-0.117c-0.07-0.144-0.035-0.252,0.096-0.333c1.117-0.657,2.174-1.44,3.168-2.376
		c0.088-0.081,0.175-0.117,0.288-0.117h0.681C148.854,35.643,148.941,35.679,149.028,35.76z M151.036,38.56
		c0,0.153-0.079,0.234-0.235,0.234h-1.955v1.621h2.27c0.156,0,0.234,0.081,0.234,0.243c0,0.144-0.078,0.216-0.234,0.216h-2.27v1.972
		h3.028c0.157,0,0.235,0.081,0.235,0.243c0,0.153-0.078,0.234-0.235,0.234h-6.948c-0.156,0-0.234-0.081-0.234-0.243
		c0-0.153,0.078-0.234,0.234-0.234h3.029v-1.972h-2.27c-0.156,0-0.235-0.081-0.235-0.243c0-0.144,0.079-0.216,0.235-0.216h2.27
		v-1.621h-1.946c-0.157,0-0.235-0.081-0.235-0.243c0-0.144,0.078-0.216,0.235-0.216h4.792
		C150.957,38.334,151.036,38.416,151.036,38.56z"/>
	<path class="st0" d="M155.525,35.787l-0.288,0.504h5.21c0.158,0,0.236,0.081,0.236,0.243c0,0.144-0.078,0.216-0.236,0.216h-0.488
		v1.656h0.829c0.157,0,0.235,0.081,0.235,0.243s-0.078,0.243-0.235,0.243h-0.829v1.747h0.663c0.157,0,0.235,0.081,0.235,0.243
		c0,0.135-0.078,0.207-0.235,0.207h-7.034c-0.158,0-0.236-0.081-0.236-0.243c0-0.135,0.078-0.207,0.236-0.207h0.672v-1.747h-0.838
		c-0.157,0-0.236-0.081-0.236-0.243s0.079-0.243,0.236-0.243h0.838v-0.819c-0.088,0.09-0.184,0.198-0.297,0.306
		c-0.105,0.108-0.219,0.117-0.332,0.027l-0.14-0.117c-0.122-0.108-0.14-0.216-0.026-0.333c0.48-0.541,0.935-1.188,1.327-1.945
		c0.069-0.135,0.166-0.171,0.306-0.135l0.287,0.081C155.543,35.517,155.595,35.633,155.525,35.787z M155.063,41.989
		c-0.271,0.495-0.594,1-0.978,1.513c-0.087,0.117-0.2,0.144-0.331,0.054l-0.21-0.144c-0.131-0.09-0.148-0.216-0.053-0.342
		c0.297-0.396,0.594-0.882,0.891-1.44c0.079-0.144,0.183-0.18,0.323-0.108l0.262,0.135
		C155.105,41.729,155.141,41.845,155.063,41.989z M155.865,36.75h-0.732v1.656h0.732V36.75z M155.865,38.893h-0.732v1.747h0.732
		V38.893z M156.563,41.836c0.097,0.486,0.166,0.954,0.228,1.404c0.018,0.162-0.053,0.252-0.21,0.279l-0.375,0.054
		c-0.157,0.027-0.245-0.054-0.263-0.216c-0.052-0.441-0.131-0.9-0.218-1.369c-0.034-0.162,0.035-0.261,0.184-0.288l0.375-0.063
		C156.433,41.611,156.529,41.683,156.563,41.836z M157.506,36.75h-0.803v1.656h0.803V36.75z M157.506,38.893h-0.803v1.747h0.803
		V38.893z M158.23,41.719c0.219,0.549,0.402,1.018,0.541,1.432c0.053,0.153-0.008,0.252-0.156,0.297l-0.323,0.09
		c-0.14,0.036-0.235-0.009-0.288-0.162c-0.148-0.45-0.332-0.918-0.516-1.396c-0.061-0.153-0.008-0.261,0.141-0.306l0.297-0.099
		C158.074,41.53,158.17,41.575,158.23,41.719z M159.086,36.75h-0.732v1.656h0.732V36.75z M159.086,38.893h-0.732v1.747h0.732V38.893
		z M159.846,41.548c0.393,0.558,0.698,1.062,0.951,1.485c0.078,0.135,0.053,0.252-0.088,0.333l-0.244,0.144
		c-0.131,0.072-0.244,0.045-0.322-0.09c-0.306-0.54-0.603-1.044-0.899-1.477c-0.087-0.135-0.069-0.261,0.069-0.342l0.21-0.126
		C159.645,41.404,159.758,41.422,159.846,41.548z"/>
	<path class="st0" d="M165.154,38.802c0,0.144-0.078,0.216-0.234,0.216h-0.804l0.891,1.863c0.062,0.135,0.044,0.243-0.07,0.333
		l-0.2,0.162c-0.131,0.108-0.254,0.072-0.323-0.081c-0.175-0.387-0.314-0.693-0.428-0.963v3.034c0,0.162-0.079,0.243-0.235,0.243
		h-0.341c-0.157,0-0.235-0.081-0.235-0.243v-2.683c-0.227,0.558-0.498,1.098-0.855,1.638c-0.096,0.153-0.236,0.153-0.332,0
		l-0.113-0.171c-0.078-0.117-0.078-0.225,0-0.342c0.523-0.829,0.934-1.774,1.205-2.791h-0.951c-0.158,0-0.236-0.081-0.236-0.243
		c0-0.144,0.078-0.216,0.236-0.216h1.047v-2.629c0-0.162,0.078-0.243,0.235-0.243h0.341c0.156,0,0.235,0.081,0.235,0.243v2.629
		h0.935C165.076,38.56,165.154,38.641,165.154,38.802z M162.686,36.318c0.139,0.549,0.234,1.044,0.322,1.503
		c0.026,0.153-0.035,0.252-0.184,0.288l-0.253,0.054c-0.157,0.036-0.253-0.036-0.279-0.189c-0.104-0.549-0.2-1.053-0.313-1.495
		c-0.035-0.153,0.018-0.252,0.174-0.288l0.244-0.054C162.545,36.102,162.65,36.165,162.686,36.318z M165.207,36.345
		c-0.069,0.531-0.191,1.08-0.34,1.656c-0.044,0.153-0.14,0.207-0.288,0.171l-0.228-0.054c-0.148-0.036-0.209-0.144-0.166-0.297
		c0.141-0.504,0.236-1.018,0.297-1.531c0.018-0.153,0.105-0.234,0.254-0.225l0.262,0.018
		C165.154,36.093,165.233,36.183,165.207,36.345z M169.955,40.855v0.018c0,0.144-0.053,0.243-0.2,0.27l-0.663,0.135v2.088
		c0,0.162-0.079,0.243-0.236,0.243h-0.401c-0.157,0-0.235-0.081-0.235-0.243v-1.917l-3.221,0.639
		c-0.157,0.027-0.254-0.045-0.271-0.207v-0.009c-0.018-0.153,0.052-0.252,0.192-0.279l3.299-0.657v-5.005
		c0-0.162,0.078-0.243,0.235-0.243h0.401c0.157,0,0.236,0.081,0.236,0.243v4.834l0.593-0.117
		C169.842,40.621,169.938,40.693,169.955,40.855z M165.906,38.361c0.559,0.531,1.021,1.017,1.422,1.485
		c0.096,0.108,0.096,0.225-0.018,0.342l-0.156,0.162c-0.114,0.117-0.228,0.108-0.332-0.009c-0.445-0.54-0.916-1.026-1.379-1.494
		c-0.113-0.108-0.105-0.234,0-0.342l0.122-0.135C165.67,38.253,165.792,38.253,165.906,38.361z M166.586,36.3
		c0.516,0.486,0.935,0.954,1.31,1.368c0.097,0.117,0.087,0.234-0.018,0.342l-0.165,0.162c-0.114,0.117-0.228,0.108-0.332-0.018
		c-0.41-0.504-0.838-0.954-1.248-1.369c-0.113-0.117-0.113-0.234-0.009-0.342l0.122-0.135
		C166.351,36.191,166.473,36.191,166.586,36.3z"/>
	<path class="st0" d="M176.574,41.539c0.515-0.603,0.76-1.53,0.646-2.421c-0.113-0.864-0.585-1.657-1.344-2.026
		c-0.087-0.045-0.725-0.243-1.117-0.225c-0.035,0.963-0.175,1.936-0.515,2.872c-0.279,0.774-0.996,2.539-2.252,2.35
		c-1.274-0.189-1.223-2.161-0.891-3.115c0.681-1.981,3.037-3.151,5.036-2.377c1.004,0.387,1.78,1.288,1.99,2.395
		c0.192,1.017-0.079,2.232-0.942,3.016c-0.751,0.667-1.693,0.981-2.775,1.053c-0.271,0.018-0.297-0.351-0.027-0.405
		C175.273,42.476,176.016,42.196,176.574,41.539z M172.123,41.395c0.584,0.144,1.187-1.26,1.396-1.873
		c0.279-0.819,0.445-1.692,0.506-2.583c-0.898,0.27-1.771,1.098-2.121,2.278C171.738,39.757,171.529,41.251,172.123,41.395z"/>
	<path class="st0" d="M179.867,41.944h2.977v-4.24h-2.146c-0.324,0-0.314-0.495,0-0.495h5.376c0.323,0,0.313,0.495,0,0.495h-2.278
		v4.24h3.081c0.323,0,0.314,0.486,0,0.486h-7.009C179.545,42.431,179.553,41.944,179.867,41.944z"/>
	<path class="st0" d="M191.104,38.163c-0.629-0.522-1.257-1.008-1.99-1.449c-0.157-0.09-0.191-0.216-0.113-0.36l0.009-0.009
		c0.087-0.144,0.192-0.189,0.349-0.126c0.813,0.297,1.502,0.648,2.287,1.107c0.148,0.09,0.184,0.225,0.087,0.378l-0.271,0.405
		C191.365,38.253,191.234,38.28,191.104,38.163z M189.488,42.259c2.375-1.044,4.233-2.547,5.865-4.753
		c0.096-0.135,0.219-0.162,0.35-0.081c0.122,0.081,0.148,0.207,0.061,0.352c-1.387,2.358-3.316,4.249-5.908,5.365
		c-0.148,0.063-0.271,0.018-0.341-0.144l-0.165-0.378C189.279,42.458,189.332,42.332,189.488,42.259z"/>
	<path class="st0" d="M199.258,39.441c-0.611-0.477-1.056-0.774-1.649-1.134c-0.297-0.18-0.026-0.549,0.245-0.459
		c0.697,0.234,1.169,0.459,1.91,0.882c0.166,0.09,0.193,0.225,0.079,0.378l-0.218,0.288
		C199.52,39.541,199.398,39.559,199.258,39.441z M198.298,42.196c2.374-0.9,4.181-2.368,5.717-4.69
		c0.192-0.279,0.611-0.045,0.445,0.261c-1.257,2.35-2.968,4.096-5.778,5.348c-0.166,0.072-0.279,0.018-0.349-0.144l-0.184-0.423
		C198.08,42.386,198.133,42.259,198.298,42.196z M200.175,37.641c-0.603-0.477-1.039-0.774-1.606-1.116
		c-0.314-0.189-0.035-0.576,0.254-0.477c0.68,0.234,1.143,0.477,1.858,0.891c0.157,0.09,0.192,0.225,0.079,0.378l-0.219,0.279
		C200.428,37.74,200.314,37.758,200.175,37.641z M202.906,37.047h-0.053c-0.156,0-0.227-0.072-0.227-0.225v-0.999
		c0-0.153,0.07-0.225,0.227-0.225h0.053c0.148,0,0.236,0.072,0.236,0.225v0.999C203.143,36.975,203.055,37.047,202.906,37.047z
		 M203.701,37.047h-0.053c-0.148,0-0.236-0.072-0.236-0.225v-0.999c0-0.153,0.088-0.225,0.236-0.225h0.053
		c0.156,0,0.227,0.072,0.227,0.225v0.999C203.928,36.975,203.857,37.047,203.701,37.047z"/>
	<path class="st0" d="M206.165,41.512h6.581c0.166,0,0.262,0.09,0.262,0.27v0.036c0,0.171-0.088,0.27-0.262,0.27h-6.581
		c-0.166,0-0.263-0.099-0.263-0.27v-0.036C205.902,41.602,205.999,41.512,206.165,41.512z M206.959,37.164h4.992
		c0.175,0,0.262,0.09,0.262,0.27v0.036c0,0.171-0.087,0.27-0.262,0.27h-4.992c-0.174,0-0.262-0.099-0.262-0.27v-0.036
		C206.697,37.254,206.793,37.164,206.959,37.164z"/>
	<path class="st0" d="M221.441,36.93c-0.768,1.45-1.535,2.044-2.818,2.44c-0.341,1.71-1.135,3.079-2.741,3.988
		c-0.288,0.162-0.523-0.243-0.244-0.423c1.632-1.053,2.095-2.737,2.095-4.744c0-0.171,0.096-0.271,0.262-0.271h0.532
		c0.175,0,0.263,0.099,0.253,0.279c-0.018,0.18-0.035,0.36-0.061,0.531c0.707-0.513,1.204-1.107,1.519-1.801h-4.976
		c-0.322,0-0.322-0.486,0-0.486h5.831C221.416,36.444,221.572,36.678,221.441,36.93z"/>
	<path class="st0" d="M228.838,35.84c-0.07,0.117-0.158,0.252-0.263,0.405h1.78c0.158,0,0.236,0.081,0.236,0.243
		c0,0.126-0.078,0.189-0.236,0.189h-3.011v0.621h2.583c0.158,0,0.236,0.081,0.236,0.243c0,0.081-0.078,0.126-0.236,0.126h-2.583
		v0.63h3.265c0.156,0,0.235,0.081,0.235,0.243c0,0.108-0.079,0.171-0.235,0.171h-1.771c0.593,0.648,1.238,1.161,1.972,1.593
		c0.132,0.072,0.175,0.18,0.122,0.324l-0.061,0.171c-0.062,0.162-0.175,0.208-0.314,0.126c-0.375-0.225-0.732-0.468-0.995-0.693
		l-0.017,1.251c0,0.162-0.079,0.243-0.236,0.243h-2.418c0.393,0.297,0.751,0.495,1.361,0.72c0.297-0.126,0.629-0.288,1.484-0.748
		c0.131-0.072,0.227-0.063,0.332,0.045l0.025,0.027c0.123,0.126,0.096,0.261-0.061,0.342c-0.62,0.324-0.873,0.45-1.144,0.576
		c0.401,0.153,0.995,0.288,1.649,0.405c0.166,0.027,0.227,0.144,0.166,0.297c-0.053,0.135-0.148,0.18-0.288,0.162
		c-1.144-0.18-2.138-0.423-2.897-0.837l-0.148-0.081c-0.594-0.324-1.057-0.63-1.336-0.909h-0.951v1.215
		c0.672-0.081,1.283-0.171,1.842-0.252c0.157-0.027,0.253,0.063,0.253,0.225c0,0.135-0.069,0.216-0.218,0.243
		c-1.24,0.198-2.409,0.315-3.605,0.396c-0.156,0.009-0.244-0.063-0.252-0.225c-0.01-0.144,0.069-0.225,0.227-0.234
		c0.35-0.018,0.646-0.054,0.908-0.072v-2.791c-0.263,0.225-0.62,0.459-0.996,0.684c-0.139,0.081-0.262,0.045-0.314-0.117
		l-0.061-0.18c-0.043-0.135-0.009-0.243,0.122-0.315c0.733-0.432,1.38-0.945,1.973-1.593h-1.771c-0.157,0-0.235-0.081-0.235-0.243
		c0-0.108,0.078-0.171,0.235-0.171h3.265v-0.63h-2.584c-0.157,0-0.236-0.081-0.236-0.243c0-0.081,0.079-0.126,0.236-0.126h2.584
		v-0.621h-3.012c-0.157,0-0.236-0.081-0.236-0.243c0-0.126,0.079-0.189,0.236-0.189h1.807c-0.07-0.126-0.14-0.252-0.235-0.396
		c-0.097-0.144-0.062-0.27,0.104-0.315l0.253-0.063c0.131-0.036,0.228,0,0.306,0.117c0.184,0.261,0.332,0.477,0.437,0.657h1.606
		c0.131-0.189,0.262-0.405,0.383-0.639c0.07-0.126,0.158-0.171,0.297-0.144l0.307,0.063
		C228.872,35.562,228.925,35.688,228.838,35.84z M228.715,39.838h-3.631v0.594h3.631V39.838z M228.715,40.774h-3.631v0.585h3.631
		V40.774z M225.128,39.469h1.327v-0.216c0-0.162,0.078-0.243,0.235-0.243h0.419c0.156,0,0.235,0.081,0.235,0.243v0.216h1.327
		c-0.306-0.306-0.523-0.549-0.672-0.756h-2.2C225.651,38.919,225.434,39.163,225.128,39.469z"/>
	<path class="st0" d="M236.521,35.832c0.008,0.27,0.008,0.558,0.025,0.882h2.34c0.156,0,0.234,0.081,0.234,0.243
		c0,0.153-0.078,0.234-0.234,0.234h-2.305c0.096,1.134,0.314,2.242,0.602,3.16c0.35-0.612,0.629-1.359,0.83-2.197
		c0.035-0.153,0.131-0.216,0.287-0.171l0.35,0.108c0.14,0.045,0.201,0.144,0.166,0.297c-0.262,1.018-0.681,1.945-1.318,2.827
		c0.323,0.72,0.699,1.251,0.838,1.404c0.184,0.198,0.428-0.189,0.506-1.27c0.01-0.189,0.114-0.27,0.279-0.216l0.358,0.117
		c0.131,0.045,0.192,0.144,0.175,0.297c-0.14,1.287-0.472,1.936-1.064,1.936c-0.489,0-1.152-0.612-1.668-1.584
		c-0.566,0.612-1.3,1.116-2.155,1.467c-0.14,0.054-0.235,0.009-0.314-0.117l-0.044-0.072c-0.087-0.144-0.035-0.261,0.113-0.324
		c0.76-0.342,1.441-0.873,2.086-1.647c-0.497-1.224-0.785-2.575-0.881-4.015h-2.514v1.107h2.051c0.157,0,0.236,0.09,0.236,0.252
		c-0.01,1.458-0.044,2.35-0.123,2.71c-0.121,0.576-0.541,0.549-0.942,0.549c-0.157,0-0.506-0.018-0.872-0.063
		c-0.141-0.018-0.219-0.099-0.228-0.243c-0.018-0.153,0.079-0.234,0.245-0.207c0.218,0.027,0.453,0.036,0.628,0.036
		c0.192,0,0.306-0.072,0.375-0.369c0.044-0.198,0.069-0.954,0.069-2.214h-1.439v0.333c0,1.792-0.271,3.205-0.873,4.339
		c-0.078,0.153-0.209,0.162-0.322,0.027l-0.271-0.324c-0.087-0.099-0.096-0.207-0.043-0.333c0.445-0.999,0.637-2.269,0.637-4.15
		v-1.684c0-0.162,0.078-0.243,0.236-0.243h3.115c-0.018-0.342-0.018-0.612-0.025-0.882c0-0.162,0.078-0.243,0.235-0.243h0.384
		C236.442,35.588,236.521,35.669,236.521,35.832z M237.429,35.399c0.444,0.234,0.838,0.486,1.179,0.702
		c0.139,0.09,0.148,0.207,0.061,0.333l-0.044,0.063c-0.087,0.126-0.209,0.135-0.331,0.054c-0.498-0.306-0.864-0.531-1.152-0.693
		c-0.14-0.072-0.175-0.207-0.078-0.333l0.034-0.045C237.184,35.363,237.298,35.336,237.429,35.399z"/>
	<path class="st0" d="M244.029,40.468h-2.217c-0.025,1.188-0.191,2.134-0.541,2.944c-0.061,0.144-0.184,0.171-0.314,0.099
		l-0.313-0.18c-0.122-0.072-0.157-0.18-0.104-0.315c0.287-0.774,0.418-1.747,0.418-3.259v-1.98c0-0.162,0.079-0.243,0.236-0.243
		h2.836c0.158,0,0.236,0.081,0.236,0.243v2.448C244.266,40.387,244.188,40.468,244.029,40.468z M244.475,36.309
		c0,0.162-0.078,0.243-0.235,0.243h-3.465c-0.157,0-0.235-0.081-0.235-0.243s0.078-0.243,0.235-0.243h3.465
		C244.396,36.065,244.475,36.146,244.475,36.309z M243.453,37.992h-1.641v2.017h1.641V37.992z M247.861,36.3
		c-0.611,0.216-1.405,0.387-2.339,0.495c-0.009,0.729-0.026,1.278-0.035,1.629h2.601c0.158,0,0.236,0.081,0.236,0.243v0.018
		c0,0.162-0.078,0.243-0.236,0.243h-0.715v4.348c0,0.162-0.079,0.243-0.236,0.243h-0.384c-0.157,0-0.235-0.081-0.235-0.243v-4.348
		h-1.064c-0.123,2.115-0.498,3.232-1.362,4.366c-0.096,0.126-0.21,0.135-0.331,0.027l-0.192-0.162
		c-0.114-0.099-0.131-0.216-0.044-0.342c0.523-0.774,0.855-1.638,1.021-3.205c0.087-0.765,0.131-1.783,0.14-3.007
		c0-0.153,0.078-0.243,0.227-0.252c1.073-0.099,1.981-0.288,2.784-0.594c0.148-0.054,0.262,0,0.297,0.153l0.018,0.081
		C248.045,36.138,248.001,36.255,247.861,36.3z"/>
</g>
<g>
	<path class="st3" d="M145.69,81.418c-1.229,3.989-3.233,7.295-7.042,11.17c-0.277,0.248-0.575,0.248-0.813,0.02
		c-0.258-0.266-0.278-0.532-0.02-0.798c3.233-3.743,4.542-6.802,5.534-10.923c0.1-0.381,0.357-0.514,0.734-0.457l1.189,0.285
		C145.65,80.791,145.77,81.189,145.69,81.418z M153.308,91.373c-0.813-3.648-1.944-7.144-4.622-9.917
		c-0.258-0.267-0.297-0.513-0.079-0.741c0.238-0.209,0.516-0.228,0.794-0.019c3.253,2.526,5.018,5.794,6.367,10.03
		c0.119,0.361-0.02,0.607-0.396,0.703l-1.33,0.361C153.645,91.885,153.387,91.733,153.308,91.373z"/>
	<path class="st3" d="M174.221,83.223c-1.131,1.843-1.844,2.621-3.293,4.274c-0.516,0.569-1.447,0.076-1.012-0.608
		c0.894-1.387,1.35-2.336,1.885-3.57l-6.645,1.006v2.68c0,0.854-0.02,1.689,0.059,2.488c0.061,0.722,0.219,1.254,0.715,1.539
		c0.496,0.284,1.289,0.342,2.103,0.36c1.646,0.058,3.53-0.19,5.554-0.569c0.397-0.076,0.655,0.113,0.675,0.493l0.04,0.608
		c0.02,0.36-0.179,0.569-0.556,0.627c-2.46,0.342-4.106,0.513-5.792,0.418c-0.912-0.039-1.865-0.133-2.896-0.608
		c-1.17-0.551-1.627-1.653-1.766-2.717c-0.139-0.931-0.099-1.767-0.099-2.64v-2.489l-4.126,0.646
		c-0.715,0.114-0.854-0.931-0.139-1.045l4.244-0.627v-4.673c0-0.36,0.219-0.569,0.596-0.569h0.833c0.396,0,0.595,0.189,0.595,0.569
		v4.445l8.332-1.159C174.42,81.969,174.658,82.501,174.221,83.223z"/>
	<path class="st3" d="M193.785,80.354c-1.586,6.023-5.117,10.26-11.088,13.109c-0.357,0.17-0.635,0.075-0.754-0.209
		c-0.139-0.305-0.039-0.533,0.298-0.723c4.819-2.754,7.339-6.688,8.946-11.987h-10.732c-0.377,0-0.574-0.171-0.595-0.513
		c0-0.322,0.179-0.514,0.575-0.514h12.695C193.548,79.518,193.965,79.746,193.785,80.354z M191.545,91.43h-0.119
		c-0.357,0-0.516-0.152-0.516-0.475v-2.109c0-0.322,0.158-0.475,0.516-0.475h0.119c0.336,0,0.535,0.152,0.535,0.475v2.109
		C192.08,91.277,191.881,91.43,191.545,91.43z M193.35,91.43h-0.119c-0.338,0-0.535-0.152-0.535-0.475v-2.109
		c0-0.322,0.197-0.475,0.535-0.475h0.119c0.357,0,0.516,0.152,0.516,0.475v2.109C193.865,91.277,193.707,91.43,193.35,91.43z"/>
	<path class="st3" d="M200.238,79.879h12.576c0.516,0,0.794,0.266,0.794,0.76V91.81c0,0.493-0.278,0.76-0.794,0.76h-12.576
		c-0.516,0-0.793-0.267-0.793-0.76V80.639C199.445,80.145,199.723,79.879,200.238,79.879z M201.548,81.02v10.41h9.958V81.02H201.548
		z"/>
</g>
</svg>
